<?xml version="1.0" encoding="UTF-8" standalone="no"?>
<svg
   xmlns:dc="http://purl.org/dc/elements/1.1/"
   xmlns:cc="http://creativecommons.org/ns#"
   xmlns:rdf="http://www.w3.org/1999/02/22-rdf-syntax-ns#"
   xmlns:svg="http://www.w3.org/2000/svg"
   xmlns="http://www.w3.org/2000/svg"
   id="svg3722"
   version="1.1"
   viewBox="0 0 16 16">
  <metadata
     id="metadata3728">
    <rdf:RDF>
      <cc:Work
         rdf:about="">
        <dc:format>image/svg+xml</dc:format>
        <dc:type
           rdf:resource="http://purl.org/dc/dcmitype/StillImage" />
        <dc:title></dc:title>
      </cc:Work>
    </rdf:RDF>
  </metadata>
  <defs
     id="defs3726" />
  <path
     style="fill-rule:evenodd"
     id="path3720"
     d="M 8,0 C 3.58,0 0,3.58 0,8 c 0,3.54 2.29,6.53 5.47,7.59 0.4,0.07 0.55,-0.17 0.55,-0.38 0,-0.19 -0.077797,-1.481017 -0.077797,-2.151017 C 5.9433346,12.597005 6.1160655,11.824118 6.56,11.53 4.78,11.33 3.8013559,10.978983 3.5810169,7.6647458 3.9355372,4.6446549 5.3653277,3.8240736 8.0538984,3.639661 10.967753,3.8102868 12.141357,4.4459308 12.425085,7.6477967 12.255593,10.378813 11.25,11.33 9.47,11.53 c 0.29,0.25 0.54,0.73 0.54,1.48 0,1.07 -0.01,1.93 -0.01,2.2 0,0.21 0.15,0.46 0.55,0.38 C 13.806446,14.490656 15.999121,11.437004 16,8 16,3.58 12.42,0 8,0 Z" />
  <rect
     ry="0.23728813"
     y="6.3898306"
     x="6.0169492"
     height="1.0847455"
     width="3.9830508"
     id="rect3731"
     style="fill:#000000;fill-opacity:1" />
</svg>
